<?xml version="1.0" encoding="UTF-8" standalone="no"?>
<!-- Created with Inkscape (http://www.inkscape.org/) -->

<svg
   xmlns:dc="http://purl.org/dc/elements/1.1/"
   xmlns:cc="http://creativecommons.org/ns#"
   xmlns:rdf="http://www.w3.org/1999/02/22-rdf-syntax-ns#"
   xmlns:svg="http://www.w3.org/2000/svg"
   xmlns="http://www.w3.org/2000/svg"
   xmlns:sodipodi="http://sodipodi.sourceforge.net/DTD/sodipodi-0.dtd"
   xmlns:inkscape="http://www.inkscape.org/namespaces/inkscape"
   id="svg2"
   version="1.1"
   inkscape:version="0.91 r13725"
   xml:space="preserve"
   width="657.50421"
   height="526.41315"
   viewBox="0 0 657.50421 526.41315"
   sodipodi:docname="cercha_techo.svg"><metadata
     id="metadata8"><rdf:RDF><cc:Work
         rdf:about=""><dc:format>image/svg+xml</dc:format><dc:type
           rdf:resource="http://purl.org/dc/dcmitype/StillImage" /><dc:title></dc:title></cc:Work></rdf:RDF></metadata><defs
     id="defs6"><clipPath
       clipPathUnits="userSpaceOnUse"
       id="clipPath38"><path
         d="m 49.362,695.627 512.64,0 0,-388.8 -512.64,0 0,388.8 z"
         id="path40"
         inkscape:connector-curvature="0" /></clipPath><clipPath
       clipPathUnits="userSpaceOnUse"
       id="clipPath192"><path
         d="m 149.412,331.849 37.26,0 0,-11.34 -37.26,0 0,11.34 z"
         id="path194"
         inkscape:connector-curvature="0" /></clipPath><clipPath
       clipPathUnits="userSpaceOnUse"
       id="clipPath210"><path
         d="m 407.772,329.449 37.26,0 0,-11.34 -37.26,0 0,11.34 z"
         id="path212"
         inkscape:connector-curvature="0" /></clipPath></defs><sodipodi:namedview
     pagecolor="#ffffff"
     bordercolor="#666666"
     borderopacity="1"
     objecttolerance="10"
     gridtolerance="10"
     guidetolerance="10"
     inkscape:pageopacity="0"
     inkscape:pageshadow="2"
     inkscape:window-width="1920"
     inkscape:window-height="1016"
     id="namedview4"
     showgrid="false"
     inkscape:zoom="1.3485026"
     inkscape:cx="224.97742"
     inkscape:cy="167.75656"
     inkscape:window-x="0"
     inkscape:window-y="0"
     inkscape:window-maximized="1"
     inkscape:current-layer="g10"
     fit-margin-top="0"
     fit-margin-left="0"
     fit-margin-right="0"
     fit-margin-bottom="0" /><g
     id="g10"
     inkscape:groupmode="layer"
     inkscape:label="IFEM.Ch01.Slides"
     transform="matrix(1.25,0,0,-1.25,-59.277541,875.13982)"><path
       d="m 169.785,557.941 -2.018,4.618 -5.278,-2.306 2.018,-4.618 5.278,2.306 z"
       style="fill:#808080;fill-opacity:1;fill-rule:nonzero;stroke:#808080;stroke-width:0.72000003;stroke-linecap:butt;stroke-linejoin:miter;stroke-miterlimit:4;stroke-dasharray:none;stroke-opacity:1"
       id="path12"
       inkscape:connector-curvature="0" /><path
       d="m 211.23,575.131 -2.018,4.618 -5.278,-2.306 2.018,-4.618 5.278,2.306 z"
       style="fill:#808080;fill-opacity:1;fill-rule:nonzero;stroke:#808080;stroke-width:0.72000003;stroke-linecap:butt;stroke-linejoin:miter;stroke-miterlimit:4;stroke-dasharray:none;stroke-opacity:1"
       id="path14"
       inkscape:connector-curvature="0" /><path
       d="m 254.07,593.311 -2.018,4.618 -5.278,-2.306 2.018,-4.618 5.278,2.306 z"
       style="fill:#808080;fill-opacity:1;fill-rule:nonzero;stroke:#808080;stroke-width:0.72000003;stroke-linecap:butt;stroke-linejoin:miter;stroke-miterlimit:4;stroke-dasharray:none;stroke-opacity:1"
       id="path16"
       inkscape:connector-curvature="0" /><path
       d="m 294.75,610.051 -2.018,4.618 -5.278,-2.306 2.018,-4.618 5.278,2.306 z"
       style="fill:#808080;fill-opacity:1;fill-rule:nonzero;stroke:#808080;stroke-width:0.72000003;stroke-linecap:butt;stroke-linejoin:miter;stroke-miterlimit:4;stroke-dasharray:none;stroke-opacity:1"
       id="path18"
       inkscape:connector-curvature="0" /><path
       d="m 419.889,557.941 2.018,4.618 5.278,-2.306 -2.018,-4.618 -5.278,2.306 z"
       style="fill:#808080;fill-opacity:1;fill-rule:nonzero;stroke:#808080;stroke-width:0.72000003;stroke-linecap:butt;stroke-linejoin:miter;stroke-miterlimit:4;stroke-dasharray:none;stroke-opacity:1"
       id="path20"
       inkscape:connector-curvature="0" /><path
       d="m 378.444,575.131 2.018,4.618 5.278,-2.306 -2.018,-4.618 -5.278,2.306 z"
       style="fill:#808080;fill-opacity:1;fill-rule:nonzero;stroke:#808080;stroke-width:0.72000003;stroke-linecap:butt;stroke-linejoin:miter;stroke-miterlimit:4;stroke-dasharray:none;stroke-opacity:1"
       id="path22"
       inkscape:connector-curvature="0" /><path
       d="m 335.874,593.266 2.018,4.618 5.278,-2.306 -2.018,-4.618 -5.278,2.306 z"
       style="fill:#808080;fill-opacity:1;fill-rule:nonzero;stroke:#808080;stroke-width:0.72000003;stroke-linecap:butt;stroke-linejoin:miter;stroke-miterlimit:4;stroke-dasharray:none;stroke-opacity:1"
       id="path24"
       inkscape:connector-curvature="0" /><path
       d="m 295.104,610.231 2.018,4.618 5.278,-2.306 -2.018,-4.619 -5.278,2.307 z"
       style="fill:#808080;fill-opacity:1;fill-rule:nonzero;stroke:#808080;stroke-width:0.72000003;stroke-linecap:butt;stroke-linejoin:miter;stroke-miterlimit:4;stroke-dasharray:none;stroke-opacity:1"
       id="path26"
       inkscape:connector-curvature="0" /><path
       d="m 122.082,542.807 172.755,72.99 173.085,-72.75"
       style="fill:none;stroke:#808080;stroke-width:2.16000009;stroke-linecap:butt;stroke-linejoin:miter;stroke-miterlimit:4;stroke-dasharray:none;stroke-opacity:1"
       id="path28"
       inkscape:connector-curvature="0" /><path
       d="m 208.441,555.912 0,18.135 m 43.2,-18.135 0,36.18"
       style="fill:none;stroke:#000000;stroke-width:1.79999995;stroke-linecap:butt;stroke-linejoin:miter;stroke-miterlimit:4;stroke-dasharray:none;stroke-opacity:1"
       id="path44"
       inkscape:connector-curvature="0" /><path
       d="m 300.826,607.707 -5.94,-2.61 -5.445,2.88 5.4,2.295"
       style="fill:#000000;fill-opacity:1;fill-rule:nonzero;stroke:#000000;stroke-width:0.72000003;stroke-linecap:butt;stroke-linejoin:miter;stroke-miterlimit:4;stroke-dasharray:none;stroke-opacity:1"
       id="path46"
       inkscape:connector-curvature="0" /><path
       d="m 338.071,555.882 -0.03,36.27 m 43.335,-36.18 0,17.64"
       style="fill:none;stroke:#000000;stroke-width:1.79999995;stroke-linecap:butt;stroke-linejoin:miter;stroke-miterlimit:4;stroke-dasharray:none;stroke-opacity:1"
       id="path48"
       inkscape:connector-curvature="0" /><path
       d="m 208.441,574.047 43.185,-18.12 m 0.015,36.165 43.2,-36.18 43.2,36.24 m 0.18,-36.195 43.29,17.925"
       style="fill:none;stroke:#000000;stroke-width:1.08000004;stroke-linecap:butt;stroke-linejoin:miter;stroke-miterlimit:4;stroke-dasharray:none;stroke-opacity:1"
       id="path50"
       inkscape:connector-curvature="0" /><path
       d="m 414.393,529.986 0,20.52 17.64,0 0,-21.555 c 0,0 -1.35,-1.215 -2.52,-1.485 -1.711,-0.395 -3.5,0.57 -3.96,1.35 -0.585,0.99 -1.54,2.349 -2.61,2.52 -1.125,0.18 -2.79,-0.585 -3.735,-1.305 -0.839,-0.639 -1.89,-1.755 -2.835,-1.62 -0.833,0.119 -1.98,1.575 -1.98,1.575 z"
       style="fill:#bfbfbf;fill-opacity:1;fill-rule:nonzero;stroke:#000000;stroke-width:0.89999998;stroke-linecap:butt;stroke-linejoin:miter;stroke-miterlimit:4;stroke-dasharray:none;stroke-opacity:1"
       id="path52"
       inkscape:connector-curvature="0" /><path
       d="m 206.011,573.027 2.475,-1.905 3.465,1.44 0,2.97 -5.94,-2.505 z"
       style="fill:#000000;fill-opacity:1;fill-rule:nonzero;stroke:#000000;stroke-width:0.72000003;stroke-linecap:butt;stroke-linejoin:miter;stroke-miterlimit:4;stroke-dasharray:none;stroke-opacity:1"
       id="path54"
       inkscape:connector-curvature="0" /><path
       d="m 384.196,572.802 -2.475,-1.905 -3.465,1.44 0,2.97 5.94,-2.505 z"
       style="fill:#000000;fill-opacity:1;fill-rule:nonzero;stroke:#000000;stroke-width:0.72000003;stroke-linecap:butt;stroke-linejoin:miter;stroke-miterlimit:4;stroke-dasharray:none;stroke-opacity:1"
       id="path56"
       inkscape:connector-curvature="0" /><path
       d="m 248.671,590.892 2.97,-2.31 2.97,1.035 0,3.78 -5.94,-2.505 z"
       style="fill:#000000;fill-opacity:1;fill-rule:nonzero;stroke:#000000;stroke-width:0.72000003;stroke-linecap:butt;stroke-linejoin:miter;stroke-miterlimit:4;stroke-dasharray:none;stroke-opacity:1"
       id="path58"
       inkscape:connector-curvature="0" /><path
       d="m 338.086,559.542 -6.18,-3.66 10.455,0.03 0,1.71 -4.275,1.92 z"
       style="fill:#000000;fill-opacity:1;fill-rule:nonzero;stroke:#000000;stroke-width:0.72000003;stroke-linecap:butt;stroke-linejoin:miter;stroke-miterlimit:4;stroke-dasharray:none;stroke-opacity:1"
       id="path60"
       inkscape:connector-curvature="0" /><path
       d="m 251.686,559.587 6.18,-3.66 -10.455,0.03 0,1.71 4.275,1.92 z"
       style="fill:#000000;fill-opacity:1;fill-rule:nonzero;stroke:#000000;stroke-width:0.72000003;stroke-linecap:butt;stroke-linejoin:miter;stroke-miterlimit:4;stroke-dasharray:none;stroke-opacity:1"
       id="path62"
       inkscape:connector-curvature="0" /><path
       d="m 341.326,590.772 -2.97,-2.31 -2.97,1.035 0,3.78 5.94,-2.505 z"
       style="fill:#000000;fill-opacity:1;fill-rule:nonzero;stroke:#000000;stroke-width:0.72000003;stroke-linecap:butt;stroke-linejoin:miter;stroke-miterlimit:4;stroke-dasharray:none;stroke-opacity:1"
       id="path64"
       inkscape:connector-curvature="0" /><path
       d="m 208.501,559.028 -3.009,-3.01 5.934,0 -2.925,3.01 z"
       style="fill:#000000;fill-opacity:1;fill-rule:nonzero;stroke:#000000;stroke-width:0.72000003;stroke-linecap:butt;stroke-linejoin:miter;stroke-miterlimit:4;stroke-dasharray:none;stroke-opacity:1"
       id="path66"
       inkscape:connector-curvature="0" /><path
       d="m 381.481,558.927 -3.009,-3.01 5.934,0 -2.925,3.01 z"
       style="fill:#000000;fill-opacity:1;fill-rule:nonzero;stroke:#000000;stroke-width:0.72000003;stroke-linecap:butt;stroke-linejoin:miter;stroke-miterlimit:4;stroke-dasharray:none;stroke-opacity:1"
       id="path68"
       inkscape:connector-curvature="0" /><path
       d="m 288.361,555.852 12.96,0 -2.16,3.6 -4.32,1.44 -4.32,-1.38 -2.16,-3.66 z"
       style="fill:#000000;fill-opacity:1;fill-rule:nonzero;stroke:#000000;stroke-width:0.72000003;stroke-linecap:butt;stroke-linejoin:miter;stroke-miterlimit:4;stroke-dasharray:none;stroke-opacity:1"
       id="path70"
       inkscape:connector-curvature="0" /><path
       d="m 164.161,555.732 6.12,0 -0.54,1.98 -5.58,-1.98 z"
       style="fill:#000000;fill-opacity:1;fill-rule:nonzero;stroke:#000000;stroke-width:1.44000006;stroke-linecap:butt;stroke-linejoin:miter;stroke-miterlimit:4;stroke-dasharray:none;stroke-opacity:1"
       id="path72"
       inkscape:connector-curvature="0" /><path
       d="m 424.891,555.912 -6.12,0 0.54,1.98 5.58,-1.98 z"
       style="fill:#000000;fill-opacity:1;fill-rule:nonzero;stroke:#000000;stroke-width:1.44000006;stroke-linecap:butt;stroke-linejoin:miter;stroke-miterlimit:4;stroke-dasharray:none;stroke-opacity:1"
       id="path74"
       inkscape:connector-curvature="0" /><path
       d="m 294.841,610.092 0,-54.18"
       style="fill:#000000;fill-opacity:1;fill-rule:nonzero;stroke:#000000;stroke-width:1.79999995;stroke-linecap:butt;stroke-linejoin:miter;stroke-miterlimit:4;stroke-dasharray:none;stroke-opacity:1"
       id="path76"
       inkscape:connector-curvature="0" /><path
       d="m 425.353,553.88 c 0.143,-0.25 0.538,0.115 0.688,0.271 0.089,0.093 0.051,0.312 -0.078,0.276 l -0.602,-0.511 c -0.01,-0.005 -0.013,-0.031 -0.008,-0.036"
       style="fill:#ffffff;fill-opacity:1;fill-rule:nonzero;stroke:none"
       id="path96"
       inkscape:connector-curvature="0" /><path
       d="m 431.3,553.245 c -0.224,0.13 -0.251,0.149 -0.466,0.059 -0.189,-0.079 -0.564,-0.551 -0.361,-0.706 0.093,-0.029 0.295,0.107 0.441,0.166 0.155,0.062 0.602,0.307 0.386,0.481"
       style="fill:#ffffff;fill-opacity:1;fill-rule:nonzero;stroke:none"
       id="path100"
       inkscape:connector-curvature="0" /><path
       d="m 359.972,583.79 c 0.184,-0.222 0.51,0.205 0.63,0.384 0.072,0.107 -0.003,0.317 -0.124,0.259 l -0.505,-0.607 c -0.008,-0.007 -0.007,-0.033 -0.001,-0.036"
       style="fill:#ffffff;fill-opacity:1;fill-rule:nonzero;stroke:none"
       id="path108"
       inkscape:connector-curvature="0" /><path
       d="m 163.921,551.127 6.48,0 0,4.05 -6.48,0 0,-4.05 z"
       style="fill:#808080;fill-opacity:1;fill-rule:nonzero;stroke:#000000;stroke-width:0.72000003;stroke-linecap:butt;stroke-linejoin:miter;stroke-miterlimit:4;stroke-dasharray:none;stroke-opacity:1"
       id="path118"
       inkscape:connector-curvature="0" /><path
       d="m 418.621,551.082 6.48,0 0,4.05 -6.48,0 0,-4.05 z"
       style="fill:#808080;fill-opacity:1;fill-rule:nonzero;stroke:#000000;stroke-width:0.72000003;stroke-linecap:butt;stroke-linejoin:miter;stroke-miterlimit:4;stroke-dasharray:none;stroke-opacity:1"
       id="path120"
       inkscape:connector-curvature="0" /><path
       d="m 165.241,555.912 259.2,0 -129.6,54.36 -129.6,-54.36 z"
       style="fill:none;stroke:#000000;stroke-width:1.79999995;stroke-linecap:butt;stroke-linejoin:miter;stroke-miterlimit:4;stroke-dasharray:none;stroke-opacity:1"
       id="path122"
       inkscape:connector-curvature="0" /><path
       d="m 158.071,530.382 0,20.52 17.64,0 0,-21.555 c 0,0 -1.35,-1.215 -2.52,-1.485 -1.71,-0.395 -3.499,0.57 -3.96,1.35 -0.585,0.99 -1.539,2.348 -2.61,2.52 -1.125,0.18 -2.79,-0.585 -3.735,-1.305 -0.838,-0.639 -1.89,-1.755 -2.835,-1.62 -0.832,0.118 -1.98,1.575 -1.98,1.575 z"
       style="fill:#bfbfbf;fill-opacity:1;fill-rule:nonzero;stroke:#000000;stroke-width:0.89999998;stroke-linecap:butt;stroke-linejoin:miter;stroke-miterlimit:4;stroke-dasharray:none;stroke-opacity:1"
       id="path124"
       inkscape:connector-curvature="0" /><path
       d="m 298.482,498.665 0,-33.037"
       style="fill:none;stroke:#808080;stroke-width:4.32000017;stroke-linecap:butt;stroke-linejoin:miter;stroke-miterlimit:4;stroke-dasharray:none;stroke-opacity:1"
       id="path140"
       inkscape:connector-curvature="0" /><path
       d="m 287.815,473.716 10.667,-4.529 10.667,4.529 -10.667,-25.279 -10.667,25.279"
       style="fill:#808080;fill-opacity:1;fill-rule:nonzero;stroke:none"
       id="path142"
       inkscape:connector-curvature="0" /><path
       d="m 211.021,337.765 0,18.135 m 43.2,-18.135 0,36.18 m 86.43,-36.211 -0.03,36.271 m 43.38,-36.09 0,17.64 m -172.98,0.345 43.185,-18.12 m 0.015,36.165 43.2,-36.18 43.2,36.24 m 0.18,-36.195 43.29,17.924 m -86.67,36.211 0,-54.18 m -129.6,0 259.2,0 -129.6,54.36 -129.6,-54.36 z"
       style="fill:none;stroke:#000000;stroke-width:2.16000009;stroke-linecap:butt;stroke-linejoin:miter;stroke-miterlimit:4;stroke-dasharray:none;stroke-opacity:1"
       id="path166"
       inkscape:connector-curvature="0" /><path
       d="m 211.021,334.201 c 1.969,0 3.564,1.595 3.564,3.563 0,1.969 -1.595,3.564 -3.564,3.564 -1.968,0 -3.563,-1.595 -3.563,-3.564 0,-1.968 1.595,-3.563 3.563,-3.563 z"
       style="fill:#fdf774;fill-opacity:1;fill-rule:nonzero;stroke:#000000;stroke-width:0.86400002;stroke-linecap:butt;stroke-linejoin:miter;stroke-miterlimit:4;stroke-dasharray:none;stroke-opacity:1"
       id="path168"
       inkscape:connector-curvature="0" /><path
       d="m 254.207,334.217 c 1.968,0 3.563,1.596 3.563,3.564 0,1.968 -1.595,3.564 -3.563,3.564 -1.969,0 -3.564,-1.596 -3.564,-3.564 0,-1.968 1.595,-3.564 3.564,-3.564 z"
       style="fill:#fdf774;fill-opacity:1;fill-rule:nonzero;stroke:#000000;stroke-width:0.86400002;stroke-linecap:butt;stroke-linejoin:miter;stroke-miterlimit:4;stroke-dasharray:none;stroke-opacity:1"
       id="path170"
       inkscape:connector-curvature="0" /><path
       d="m 254.221,370.382 c 1.969,0 3.564,1.596 3.564,3.564 0,1.968 -1.595,3.564 -3.564,3.564 -1.968,0 -3.563,-1.596 -3.563,-3.564 0,-1.968 1.595,-3.564 3.563,-3.564 z"
       style="fill:#fdf774;fill-opacity:1;fill-rule:nonzero;stroke:#000000;stroke-width:0.86400002;stroke-linecap:butt;stroke-linejoin:miter;stroke-miterlimit:4;stroke-dasharray:none;stroke-opacity:1"
       id="path172"
       inkscape:connector-curvature="0" /><path
       d="m 211.021,352.336 c 1.969,0 3.564,1.595 3.564,3.563 0,1.969 -1.595,3.564 -3.564,3.564 -1.968,0 -3.563,-1.595 -3.563,-3.564 0,-1.968 1.595,-3.563 3.563,-3.563 z"
       style="fill:#fdf774;fill-opacity:1;fill-rule:nonzero;stroke:#000000;stroke-width:0.86400002;stroke-linecap:butt;stroke-linejoin:miter;stroke-miterlimit:4;stroke-dasharray:none;stroke-opacity:1"
       id="path174"
       inkscape:connector-curvature="0" /><path
       d="m 297.421,388.561 c 1.969,0 3.564,1.595 3.564,3.564 0,1.968 -1.595,3.563 -3.564,3.563 -1.968,0 -3.563,-1.595 -3.563,-3.563 0,-1.969 1.595,-3.564 3.563,-3.564 z"
       style="fill:#fdf774;fill-opacity:1;fill-rule:nonzero;stroke:#000000;stroke-width:0.86400002;stroke-linecap:butt;stroke-linejoin:miter;stroke-miterlimit:4;stroke-dasharray:none;stroke-opacity:1"
       id="path176"
       inkscape:connector-curvature="0" /><path
       d="m 297.617,334.326 c 1.968,0 3.563,1.596 3.563,3.564 0,1.968 -1.595,3.564 -3.563,3.564 -1.969,0 -3.564,-1.596 -3.564,-3.564 0,-1.968 1.595,-3.564 3.564,-3.564 z"
       style="fill:#fdf774;fill-opacity:1;fill-rule:nonzero;stroke:#000000;stroke-width:0.86400002;stroke-linecap:butt;stroke-linejoin:miter;stroke-miterlimit:4;stroke-dasharray:none;stroke-opacity:1"
       id="path178"
       inkscape:connector-curvature="0" /><path
       d="m 340.621,370.441 c 1.969,0 3.564,1.595 3.564,3.564 0,1.968 -1.595,3.563 -3.564,3.563 -1.968,0 -3.563,-1.595 -3.563,-3.563 0,-1.969 1.595,-3.564 3.563,-3.564 z"
       style="fill:#fdf774;fill-opacity:1;fill-rule:nonzero;stroke:#000000;stroke-width:0.86400002;stroke-linecap:butt;stroke-linejoin:miter;stroke-miterlimit:4;stroke-dasharray:none;stroke-opacity:1"
       id="path180"
       inkscape:connector-curvature="0" /><path
       d="m 340.801,334.246 c 1.969,0 3.564,1.595 3.564,3.564 0,1.968 -1.595,3.563 -3.564,3.563 -1.968,0 -3.563,-1.595 -3.563,-3.563 0,-1.969 1.595,-3.564 3.563,-3.564 z"
       style="fill:#fdf774;fill-opacity:1;fill-rule:nonzero;stroke:#000000;stroke-width:0.86400002;stroke-linecap:butt;stroke-linejoin:miter;stroke-miterlimit:4;stroke-dasharray:none;stroke-opacity:1"
       id="path182"
       inkscape:connector-curvature="0" /><path
       d="m 384.091,352.171 c 1.969,0 3.564,1.596 3.564,3.564 0,1.968 -1.595,3.564 -3.564,3.564 -1.968,0 -3.563,-1.596 -3.563,-3.564 0,-1.968 1.595,-3.564 3.563,-3.564 z"
       style="fill:#fdf774;fill-opacity:1;fill-rule:nonzero;stroke:#000000;stroke-width:0.86400002;stroke-linecap:butt;stroke-linejoin:miter;stroke-miterlimit:4;stroke-dasharray:none;stroke-opacity:1"
       id="path184"
       inkscape:connector-curvature="0" /><path
       d="m 383.956,334.261 c 1.969,0 3.564,1.595 3.564,3.564 0,1.968 -1.595,3.563 -3.564,3.563 -1.968,0 -3.563,-1.595 -3.563,-3.563 0,-1.969 1.595,-3.564 3.563,-3.564 z"
       style="fill:#fdf774;fill-opacity:1;fill-rule:nonzero;stroke:#000000;stroke-width:0.86400002;stroke-linecap:butt;stroke-linejoin:miter;stroke-miterlimit:4;stroke-dasharray:none;stroke-opacity:1"
       id="path186"
       inkscape:connector-curvature="0" /><g
       id="g188"><g
         id="g190"
         clip-path="url(#clipPath192)"><text
           transform="matrix(0,1,1,0,211.1471,311.506)"
           style="font-variant:normal;font-weight:normal;font-size:0.54000002px;font-family:Arial;-inkscape-font-specification:Arial;writing-mode:lr-tb;fill:#000000;fill-opacity:1;fill-rule:nonzero;stroke:none"
           id="text196"><tspan
             x="0"
             y="0"
             id="tspan198">;</tspan><tspan
             x="0"
             y="-24.7428"
             id="tspan200">;</tspan><tspan
             x="0"
             y="-49.4856"
             id="tspan202">;</tspan></text>
</g></g><path
       d="m 149.412,331.849 37.26,0 0,-11.34 -37.26,0 0,11.34 z"
       style="fill:none;stroke:#ffffff;stroke-width:0.72000003;stroke-linecap:butt;stroke-linejoin:miter;stroke-miterlimit:4;stroke-dasharray:none;stroke-opacity:1"
       id="path204"
       inkscape:connector-curvature="0" /><g
       id="g206"><g
         id="g208"
         clip-path="url(#clipPath210)"><text
           transform="matrix(0,1,1,0,469.5066,309.1055)"
           style="font-variant:normal;font-weight:normal;font-size:0.54000002px;font-family:Arial;-inkscape-font-specification:Arial;writing-mode:lr-tb;fill:#000000;fill-opacity:1;fill-rule:nonzero;stroke:none"
           id="text214"><tspan
             x="0"
             y="0"
             id="tspan216">;</tspan><tspan
             x="0"
             y="-24.742746"
             id="tspan218">;</tspan><tspan
             x="0"
             y="-49.4856"
             id="tspan220">;</tspan></text>
</g></g><path
       d="m 407.772,329.449 37.26,0 0,-11.34 -37.26,0 0,11.34 z"
       style="fill:none;stroke:#ffffff;stroke-width:0.72000003;stroke-linecap:butt;stroke-linejoin:miter;stroke-miterlimit:4;stroke-dasharray:none;stroke-opacity:1"
       id="path222"
       inkscape:connector-curvature="0" /><path
       d="m 163.777,332.383 10.246,0 -5.123,5.36 -5.123,-5.36 z"
       style="fill:#df0024;fill-opacity:1;fill-rule:nonzero;stroke:#e10058;stroke-width:0.72000003;stroke-linecap:butt;stroke-linejoin:miter;stroke-miterlimit:4;stroke-dasharray:none;stroke-opacity:1"
       id="path224"
       inkscape:connector-curvature="0" /><path
       d="m 422.778,329.449 c 1.012,0 1.833,0.82 1.833,1.833 0,1.012 -0.821,1.832 -1.833,1.832 -1.012,0 -1.833,-0.82 -1.833,-1.832 0,-1.013 0.821,-1.833 1.833,-1.833 z"
       style="fill:#ffffff;fill-opacity:1;fill-rule:nonzero;stroke:#e10058;stroke-width:0.72000003;stroke-linecap:butt;stroke-linejoin:miter;stroke-miterlimit:4;stroke-dasharray:none;stroke-opacity:1"
       id="path226"
       inkscape:connector-curvature="0" /><path
       d="m 428.832,329.449 c 1.012,0 1.833,0.82 1.833,1.833 0,1.012 -0.821,1.832 -1.833,1.832 -1.012,0 -1.833,-0.82 -1.833,-1.832 0,-1.013 0.821,-1.833 1.833,-1.833 z"
       style="fill:#ffffff;fill-opacity:1;fill-rule:nonzero;stroke:#e10058;stroke-width:0.72000003;stroke-linecap:butt;stroke-linejoin:miter;stroke-miterlimit:4;stroke-dasharray:none;stroke-opacity:1"
       id="path228"
       inkscape:connector-curvature="0" /><path
       d="m 420.699,332.902 10.247,0 -5.124,5.36 -5.123,-5.36 z"
       style="fill:#df0024;fill-opacity:1;fill-rule:nonzero;stroke:#e10058;stroke-width:0.72000003;stroke-linecap:butt;stroke-linejoin:miter;stroke-miterlimit:4;stroke-dasharray:none;stroke-opacity:1"
       id="path230"
       inkscape:connector-curvature="0" /><path
       d="m 149.412,331.849 36.72,0 m 221.1,-2.4 36.72,0"
       style="fill:none;stroke:#e10058;stroke-width:1.44000006;stroke-linecap:butt;stroke-linejoin:miter;stroke-miterlimit:4;stroke-dasharray:none;stroke-opacity:1"
       id="path232"
       inkscape:connector-curvature="0" /><path
       d="m 425.937,334.371 c 1.968,0 3.564,1.596 3.564,3.564 0,1.968 -1.596,3.564 -3.564,3.564 -1.968,0 -3.564,-1.596 -3.564,-3.564 0,-1.968 1.596,-3.564 3.564,-3.564 z"
       style="fill:#fdf774;fill-opacity:1;fill-rule:nonzero;stroke:#000000;stroke-width:0.86400002;stroke-linecap:butt;stroke-linejoin:miter;stroke-miterlimit:4;stroke-dasharray:none;stroke-opacity:1"
       id="path234"
       inkscape:connector-curvature="0" /><path
       d="m 169.137,360.39 0,-12.96"
       style="fill:#df0024;fill-opacity:1;fill-rule:nonzero;stroke:#df0024;stroke-width:2.16000009;stroke-linecap:butt;stroke-linejoin:miter;stroke-miterlimit:4;stroke-dasharray:none;stroke-opacity:1"
       id="path236"
       inkscape:connector-curvature="0" /><path
       d="m 169.137,341.71 -3.292,8.06 3.292,-1.913 3.292,1.913 -3.292,-8.06"
       style="fill:#df0024;fill-opacity:1;fill-rule:nonzero;stroke:none"
       id="path238"
       inkscape:connector-curvature="0" /><path
       d="m 210.882,378.15 0,-12.96"
       style="fill:#df0024;fill-opacity:1;fill-rule:nonzero;stroke:#df0024;stroke-width:2.16000009;stroke-linecap:butt;stroke-linejoin:miter;stroke-miterlimit:4;stroke-dasharray:none;stroke-opacity:1"
       id="path240"
       inkscape:connector-curvature="0" /><path
       d="m 210.882,359.47 -3.292,8.06 3.292,-1.913 3.292,1.913 -3.292,-8.06"
       style="fill:#df0024;fill-opacity:1;fill-rule:nonzero;stroke:none"
       id="path242"
       inkscape:connector-curvature="0" /><path
       d="m 254.097,395.88 0,-12.96"
       style="fill:#df0024;fill-opacity:1;fill-rule:nonzero;stroke:#df0024;stroke-width:2.16000009;stroke-linecap:butt;stroke-linejoin:miter;stroke-miterlimit:4;stroke-dasharray:none;stroke-opacity:1"
       id="path244"
       inkscape:connector-curvature="0" /><path
       d="m 254.097,377.2 -3.292,8.06 3.292,-1.913 3.292,1.913 -3.292,-8.06"
       style="fill:#df0024;fill-opacity:1;fill-rule:nonzero;stroke:none"
       id="path246"
       inkscape:connector-curvature="0" /><path
       d="m 297.635,414.795 0,-12.96"
       style="fill:#df0024;fill-opacity:1;fill-rule:nonzero;stroke:#df0024;stroke-width:2.16000009;stroke-linecap:butt;stroke-linejoin:miter;stroke-miterlimit:4;stroke-dasharray:none;stroke-opacity:1"
       id="path248"
       inkscape:connector-curvature="0" /><path
       d="m 297.635,396.115 -3.292,8.06 3.292,-1.913 3.292,1.913 -3.292,-8.06"
       style="fill:#df0024;fill-opacity:1;fill-rule:nonzero;stroke:none"
       id="path250"
       inkscape:connector-curvature="0" /><path
       d="m 340.977,396.3 0,-12.96"
       style="fill:#df0024;fill-opacity:1;fill-rule:nonzero;stroke:#df0024;stroke-width:2.16000009;stroke-linecap:butt;stroke-linejoin:miter;stroke-miterlimit:4;stroke-dasharray:none;stroke-opacity:1"
       id="path252"
       inkscape:connector-curvature="0" /><path
       d="m 340.977,377.62 -3.292,8.06 3.292,-1.913 3.293,1.913 -3.293,-8.06"
       style="fill:#df0024;fill-opacity:1;fill-rule:nonzero;stroke:none"
       id="path254"
       inkscape:connector-curvature="0" /><path
       d="m 383.202,377.52 0,-12.96"
       style="fill:#df0024;fill-opacity:1;fill-rule:nonzero;stroke:#df0024;stroke-width:2.16000009;stroke-linecap:butt;stroke-linejoin:miter;stroke-miterlimit:4;stroke-dasharray:none;stroke-opacity:1"
       id="path256"
       inkscape:connector-curvature="0" /><path
       d="m 383.202,358.84 -3.292,8.06 3.292,-1.913 3.292,1.913 -3.292,-8.06"
       style="fill:#df0024;fill-opacity:1;fill-rule:nonzero;stroke:none"
       id="path258"
       inkscape:connector-curvature="0" /><path
       d="m 425.937,360.24 0,-12.96"
       style="fill:#df0024;fill-opacity:1;fill-rule:nonzero;stroke:#df0024;stroke-width:2.16000009;stroke-linecap:butt;stroke-linejoin:miter;stroke-miterlimit:4;stroke-dasharray:none;stroke-opacity:1"
       id="path260"
       inkscape:connector-curvature="0" /><path
       d="m 425.937,341.56 -3.292,8.06 3.292,-1.913 3.293,1.913 -3.293,-8.06"
       style="fill:#df0024;fill-opacity:1;fill-rule:nonzero;stroke:none"
       id="path262"
       inkscape:connector-curvature="0" /><path
       d="m 168.9,334.179 c 1.968,0 3.564,1.596 3.564,3.564 0,1.968 -1.596,3.564 -3.564,3.564 -1.968,0 -3.564,-1.596 -3.564,-3.564 0,-1.968 1.596,-3.564 3.564,-3.564 z"
       style="fill:#fdf774;fill-opacity:1;fill-rule:nonzero;stroke:#000000;stroke-width:0.86400002;stroke-linecap:butt;stroke-linejoin:miter;stroke-miterlimit:4;stroke-dasharray:none;stroke-opacity:1"
       id="path264"
       inkscape:connector-curvature="0" /><text
       transform="matrix(1,0,0,-1,263.985,50.5086)"
       style="font-variant:normal;font-weight:normal;font-size:11.9552002px;font-family:Times;-inkscape-font-specification:Times-Roman;writing-mode:lr-tb;fill:#000000;fill-opacity:1;fill-rule:nonzero;stroke:none"
       id="text266"><tspan
         x="0 3.9810815 10.628173 17.9328 31.548576 39.522697 48.489094 54.466694 60.444294 67.091385 70.414932 73.73848 79.71608 88.017769 93.995369"
         y="0"
         sodipodi:role="line"
         id="tspan268">IFEMCh1–Slide12</tspan></text>
</g></svg>